<?xml version="1.0" encoding="UTF-8"?>
<svg width="1430px" height="422px" viewBox="0 0 1430 422" version="1.1" xmlns="http://www.w3.org/2000/svg" xmlns:xlink="http://www.w3.org/1999/xlink">
    <!-- Generator: Sketch 52.6 (67491) - http://www.bohemiancoding.com/sketch -->
    <title>Group 3</title>
    <desc>Created with Sketch.</desc>
    <defs>
        <linearGradient x1="0%" y1="0%" x2="100%" y2="100%" id="linearGradient-1">
            <stop stop-color="#CD61D7" offset="0%"></stop>
            <stop stop-color="#4F2DE2" offset="100%"></stop>
        </linearGradient>
        <polygon id="path-2" points="0 0.412831818 119.796453 0.412831818 119.796453 169.367377 0 169.367377"></polygon>
        <polygon id="path-4" points="0.791957143 0.214159091 108.295314 0.214159091 108.295314 174 0.791957143 174"></polygon>
        <polygon id="path-6" points="0.421070588 0 129.039894 0 129.039894 173.7786 0.421070588 173.7786"></polygon>
    </defs>
    <g id="Page-1" stroke="none" stroke-width="1" fill="none" fill-rule="evenodd">
        <g id="Group-3">
            <g id="Group-8-Copy" transform="translate(0.000000, 205.000000)">
                <path d="M842.155516,94.2163661 L814.63509,94.2163661 C811.673574,94.2163661 809.265838,91.8073418 809.265838,88.8442419 L809.265838,58.8518896 C809.265838,51.2072526 803.06993,45 795.421354,45 L793.591474,45 C785.950924,45 779.755016,51.2072526 779.755016,58.8518896 L779.755016,88.8442419 C779.755016,91.8073418 777.34728,94.2163661 774.377738,94.2163661 L747.844484,94.2163661 C740.203934,94.2163661 734,100.415589 734,108.068256 L734,109.899114 C734,117.543751 740.203934,123.751004 747.844484,123.751004 L774.377738,123.751004 C777.34728,123.751004 779.755016,126.160028 779.755016,129.123128 L779.755016,157.14811 C779.755016,164.792747 785.950924,171 793.591474,171 L795.421354,171 C803.06993,171 809.265838,164.792747 809.265838,157.14811 L809.265838,129.123128 C809.265838,126.160028 811.673574,123.751004 814.63509,123.751004 L842.155516,123.751004 C849.796066,123.751004 856,117.543751 856,109.899114 L856,108.068256 C856,100.415589 849.796066,94.2163661 842.155516,94.2163661" id="Fill-1" fill="url(#linearGradient-1)"></path>
                <g id="Group-5" transform="translate(0.000000, 2.000000)">
                    <mask id="mask-3" fill="white">
                        <use xlink:href="#path-2"></use>
                    </mask>
                    <g id="Clip-4"></g>
                    <path d="M62.9264533,85.8555591 C76.80112,85.8555591 87.20712,82.8385136 94.1444533,76.8044227 C101.07372,70.7703318 104.550453,61.9605591 104.550453,50.3751045 C104.550453,38.7816045 101.07372,29.9798773 94.1444533,23.9457864 C87.20712,17.9116955 76.80112,14.89465 62.9264533,14.89465 L15.2524533,14.89465 L15.2524533,85.8555591 L62.9264533,85.8555591 Z M1.45845333,167.919195 C0.490453333,166.953741 -0.00161333333,165.666468 -0.00161333333,164.057377 L-0.00161333333,5.96419545 C-0.00161333333,4.35510455 0.490453333,3.02760455 1.45845333,1.98169545 C2.42645333,0.935786364 3.71712,0.412831818 5.32238667,0.412831818 L64.1364533,0.412831818 C81.3910533,0.412831818 94.9914533,4.71715 104.913453,13.3177409 C114.84352,21.9344227 119.796453,34.2841955 119.796453,50.3751045 C119.796453,66.4660136 114.84352,78.8157864 104.913453,87.4244227 C94.9914533,96.0330591 81.3910533,100.337377 64.1364533,100.337377 L15.2524533,100.337377 L15.2524533,164.057377 C15.2524533,165.666468 14.72812,166.953741 13.6794533,167.919195 C12.6307867,168.88465 11.2997867,169.367377 9.68645333,169.367377 L5.32238667,169.367377 C3.71712,169.367377 2.42645333,168.88465 1.45845333,167.919195 Z" id="Fill-3" fill="#000000" mask="url(#mask-3)"></path>
                </g>
                <path d="M160.265343,159.033524 C152.0831,149.050506 148,136.008177 148,119.906535 L148,51.3054909 C148,49.7033776 148.473287,48.4152462 149.435903,47.4491477 C150.406542,46.4830492 151.682009,46 153.294393,46 L157.385514,46 C158.981854,46 160.265343,46.4830492 161.235981,47.4491477 C162.190576,48.4152462 162.679907,49.7033776 162.679907,51.3054909 L162.679907,118.690861 C162.679907,146.224668 174.624377,159.991572 198.537383,159.991572 C210.088785,159.991572 219.265732,156.336499 226.084268,149.010252 C232.902804,141.684005 236.312072,131.580225 236.312072,118.690861 L236.312072,51.3054909 C236.312072,49.7033776 236.801402,48.4152462 237.755997,47.4491477 C238.718614,46.4830492 240.002103,46 241.614486,46 L245.697586,46 C247.301947,46 248.585436,46.4830492 249.556075,47.4491477 C250.51067,48.4152462 251,49.7033776 251,51.3054909 L251,166.271212 C251,167.889427 250.51067,169.177558 249.556075,170.143657 C248.585436,171.109755 247.301947,171.592805 245.697586,171.592805 L241.614486,171.592805 C240.002103,171.592805 238.718614,171.109755 237.755997,170.143657 C236.801402,169.177558 236.312072,167.889427 236.312072,166.271212 L236.312072,154.919555 C231.507009,161.207246 226.00405,165.949179 219.83528,169.177558 C213.650467,172.389836 205.748988,174 196.130841,174 C180.400078,174 168.455607,169.016542 160.265343,159.033524" id="Fill-6" fill="#000000"></path>
                <path d="M291.453125,169.557692 C290.492448,168.596154 290,167.314103 290,165.711538 L290,51.5288462 C290,49.9262821 290.492448,48.6041667 291.453125,47.5544872 C292.429948,46.5208333 293.713542,46 295.328125,46 L299.211198,46 C300.817708,46 302.14974,46.5208333 303.199219,47.5544872 C304.256771,48.6041667 304.773438,49.9262821 304.773438,51.5288462 L304.773438,62.5785256 C310.59401,51.5288462 321.565104,46 337.710938,46 L346.679948,46 C348.294531,46 349.586198,46.4807692 350.546875,47.4423077 C351.515625,48.4038462 352,49.6858974 352,51.2804487 L352,54.6538462 C352,56.2483974 351.515625,57.5384615 350.546875,58.5 C349.586198,59.4615385 348.294531,59.9342949 346.679948,59.9342949 L336.265885,59.9342949 C326.578385,59.9342949 318.901042,62.7467949 313.258073,68.3557692 C307.598958,73.9647436 304.773438,81.5769231 304.773438,91.1923077 L304.773438,165.711538 C304.773438,167.314103 304.256771,168.596154 303.199219,169.557692 C302.14974,170.519231 300.817708,171 299.211198,171 L295.328125,171 C293.713542,171 292.429948,170.519231 291.453125,169.557692" id="Fill-8" fill="#000000"></path>
                <g id="Group-12" transform="translate(373.000000, 43.000000)">
                    <mask id="mask-5" fill="white">
                        <use xlink:href="#path-4"></use>
                    </mask>
                    <g id="Clip-11"></g>
                    <path d="M83.4837429,104.121205 C89.5373143,95.8424318 92.7981714,85.1822045 93.2905286,72.1405227 C93.4438857,70.5314318 93.5326714,68.2787045 93.5326714,65.3903864 C93.5326714,50.4177955 90.6269571,38.1565227 84.8155286,28.5743864 C79.0041,19.0083409 68.9955286,14.21325 54.7898143,14.21325 C42.0369571,14.21325 32.4319571,18.4451591 25.9748143,26.8848409 C19.5096,35.3325682 16.0469571,45.27675 15.5626714,56.69325 L15.3205286,66.1064318 L15.5626714,75.5196136 C15.7160286,82.44675 17.2576714,89.0037955 20.1553143,95.1987955 C23.0771714,101.38575 27.4276714,106.502659 33.2391,110.517341 C39.0505286,114.548114 46.2341,116.551432 54.7898143,116.551432 C67.8574571,116.551432 77.4301714,112.408023 83.4837429,104.121205 M2.25288571,172.547795 C1.26817143,171.590386 0.791957143,170.295068 0.791957143,168.685977 L0.791957143,7.93779545 C0.791957143,6.33675 1.26817143,5.04947727 2.25288571,4.07597727 C3.21338571,3.11052273 4.50481429,2.63584091 6.1191,2.63584091 L10.2355286,2.63584091 C11.8498143,2.63584091 13.1412429,3.11052273 14.1017429,4.07597727 C15.0783857,5.04947727 15.5626714,6.33675 15.5626714,7.93779545 L15.5626714,19.2818864 C24.9174571,6.57811364 38.4855286,0.214159091 56.2426714,0.214159091 C73.6769571,0.214159091 86.5428143,5.73334091 94.8644571,16.7556136 C103.169957,27.7778864 107.568886,41.3264318 108.061243,57.4173409 C108.2146,59.0344773 108.295314,61.6894773 108.295314,65.3903864 C108.295314,69.0912955 108.2146,71.7462955 108.061243,73.3553864 C107.568886,89.4462955 103.169957,102.994841 94.8644571,114.017114 C86.5428143,125.047432 73.6769571,130.550523 56.2426714,130.550523 C38.6469571,130.550523 25.0869571,124.194614 15.5626714,111.482795 L15.5626714,168.685977 C15.5626714,170.295068 15.0783857,171.590386 14.1017429,172.547795 C13.1412429,173.51325 11.8498143,174.004023 10.2355286,174.004023 L6.1191,174.004023 C4.50481429,174.004023 3.21338571,173.51325 2.25288571,172.547795" id="Fill-10" fill="#000000" mask="url(#mask-5)"></path>
                </g>
                <path d="M515.483607,169.55493 C514.491803,168.591549 514,167.307042 514,165.701408 L514,5.29859155 C514,3.69295775 514.491803,2.4084507 515.483607,1.44507042 C516.459016,0.473661972 517.770492,0 519.409836,0 L523.590164,0 C525.229508,0 526.54918,0.473661972 527.52459,1.44507042 C528.516393,2.4084507 529,3.69295775 529,5.29859155 L529,165.701408 C529,167.307042 528.516393,168.591549 527.52459,169.55493 C526.54918,170.51831 525.229508,171 523.590164,171 L519.409836,171 C517.770492,171 516.459016,170.51831 515.483607,169.55493" id="Fill-13" fill="#000000"></path>
                <path d="M654.198428,100.537037 L654.198428,99.5820988 C654.198428,87.2240741 650.680021,77.0246914 643.643208,69 C636.606395,60.9753086 627.183536,56.962963 615.374631,56.962963 C603.565727,56.962963 594.223751,60.9753086 587.348704,69 C580.473656,77.0246914 577.044221,87.2240741 577.044221,99.5820988 L577.044221,100.537037 L654.198428,100.537037 Z M578.249376,157.953704 C568.866959,147.930864 563.528687,134.481481 562.242649,117.637654 L562,108.008025 L562.242649,98.3703704 C563.528687,81.6790123 568.826517,68.2777778 578.13614,58.1746914 C587.429587,48.0635802 599.845113,43 615.374631,43 C632.198277,43 645.341749,48.5450617 654.80505,59.6111111 C664.26835,70.6851852 669,85.8598765 669,105.111111 L669,108.730247 C669,110.335185 668.482349,111.619136 667.430872,112.574074 C666.371305,113.537037 665.036737,114.026543 663.427168,114.026543 L577.044221,114.026543 L577.044221,116.425926 C577.359664,123.97716 579.106735,130.998765 582.25308,137.490741 C585.407514,143.990741 589.815632,149.20679 595.477436,153.146914 C601.13924,157.079012 607.771638,159.037037 615.374631,159.037037 C624.271751,159.037037 631.510772,157.319753 637.099781,153.869136 C642.672613,150.418519 646.676317,146.919753 649.102804,143.396914 C650.566785,141.470988 651.658704,140.259259 652.378562,139.785802 C653.106508,139.296296 654.441076,139.06358 656.390355,139.06358 L660.264646,139.06358 C661.728627,139.06358 662.933782,139.464815 663.904377,140.259259 C664.874972,141.069753 665.368357,142.112963 665.368357,143.396914 C665.368357,146.767284 663.216872,150.819753 658.938166,155.546296 C654.651372,160.280864 648.69839,164.381481 641.103485,167.832099 C633.492403,171.274691 624.918815,173 615.374631,173 C600.006879,173 587.639882,167.984568 578.249376,157.953704 Z" id="Fill-15" fill="#000000"></path>
                <path d="M997.925801,139.614286 C1004.51714,139.614286 1009.66161,137.690905 1013.35919,133.82 C1017.05677,129.96519 1018.90556,125.297571 1018.90556,119.817143 C1018.90556,114.022857 1017.05677,109.242571 1013.35919,105.46019 C1009.66161,101.67781 1004.51714,99.786619 997.925801,99.786619 L964.406408,99.786619 L964.406408,139.614286 L997.925801,139.614286 Z M995.755481,69.1171429 C1002.17802,69.1171429 1007.08938,67.467381 1010.47347,64.1678571 C1013.84148,60.876381 1015.52951,56.4904286 1015.52951,51.01 C1015.52951,45.6985714 1013.84148,41.441381 1010.47347,38.2142857 C1007.08938,35.0032857 1002.17802,33.3937619 995.755481,33.3937619 L964.406408,33.3937619 L964.406408,69.1171429 L995.755481,69.1171429 Z M922.8086,169.197333 C921.602867,167.982143 921,166.581857 921,164.964286 L921,8.03571429 C921,6.27328571 921.602867,4.82471429 922.8086,3.69 C924.014334,2.57138095 925.412985,2 927.028668,2 L1000.57841,2 C1020.83474,2 1035.90641,6.15257143 1045.79342,14.4335714 C1055.68848,22.7306667 1060.62395,34.512381 1060.62395,49.8109048 C1060.62395,57.8585238 1058.5742,64.6587619 1054.4747,70.2035714 C1050.37521,75.7564286 1045.75323,79.8204762 1040.61681,82.4037619 C1047.20011,85.4618571 1052.74649,90.3709048 1057.24789,97.1309048 C1061.74126,103.890905 1064,111.455667 1064,119.817143 C1064,135.920429 1058.70281,148.474714 1048.08432,157.488048 C1037.47386,166.501381 1022.362,171 1002.74874,171 L927.028668,171 C925.412985,171 924.014334,170.396429 922.8086,169.197333 Z" id="Fill-17" fill="#000000"></path>
                <path d="M1163.54498,137.25 C1166.91996,133.004938 1168.84852,126.45679 1169.33869,117.637654 C1169.49137,116.024691 1169.57172,112.814815 1169.57172,108 C1169.57172,103.185185 1169.49137,99.9753086 1169.33869,98.3703704 C1168.84852,89.7037037 1166.87978,83.2117284 1163.42445,78.8783951 C1159.96911,74.5450617 1154.78611,72.3703704 1147.88348,72.3703704 C1134.53625,72.3703704 1127.46488,81.037037 1126.66131,98.3703704 L1126.42828,108 L1126.66131,117.637654 C1126.98274,126.45679 1128.87915,133.004938 1132.32645,137.25 C1135.78178,141.503086 1140.96478,143.62963 1147.88348,143.62963 C1154.95486,143.62963 1160.17,141.503086 1163.54498,137.25 M1101.83113,158.804321 C1091.06334,149.335185 1085.19731,136.014198 1084.24107,118.833333 C1084.07232,116.746914 1084,113.135802 1084,108 C1084,102.872222 1084.07232,99.2611111 1084.24107,97.1666667 C1085.19731,80.1623457 1091.22406,66.8734568 1102.3213,57.3240741 C1113.41051,47.782716 1128.58987,43 1147.88348,43 C1167.32174,43 1182.58949,47.782716 1193.6787,57.3240741 C1204.77594,66.8734568 1210.80269,80.1623457 1211.75893,97.1666667 C1211.92768,99.2611111 1212,102.872222 1212,108 C1212,113.135802 1211.92768,116.746914 1211.75893,118.833333 C1210.80269,136.014198 1204.92862,149.335185 1194.16887,158.804321 C1183.40109,168.265432 1167.96459,173 1147.88348,173 C1127.94701,173 1112.59891,168.265432 1101.83113,158.804321" id="Fill-19" fill="#000000"></path>
                <path d="M1237.83849,169.193662 C1236.61825,167.989437 1236,166.584507 1236,164.978873 L1236,6.02112676 C1236,4.25492958 1236.61825,2.80183099 1237.83849,1.68591549 C1239.0506,0.561971831 1240.48234,0 1242.10119,0 L1270.89881,0 C1272.69663,0 1274.16091,0.561971831 1275.29167,1.68591549 C1276.43056,2.80183099 1277,4.25492958 1277,6.02112676 L1277,164.978873 C1277,166.74507 1276.43056,168.190141 1275.29167,169.314085 C1274.16091,170.43 1272.69663,171 1270.89881,171 L1242.10119,171 C1240.48234,171 1239.0506,170.389859 1237.83849,169.193662" id="Fill-21" fill="#000000"></path>
                <g id="Group-25" transform="translate(1300.000000, 0.000000)">
                    <mask id="mask-7" fill="white">
                        <use xlink:href="#path-6"></use>
                    </mask>
                    <g id="Clip-24"></g>
                    <path d="M81.4122471,134.557009 C84.9500706,129.979145 86.9728353,124.057691 87.4563647,116.816782 C87.6175412,114.724964 87.6981294,111.667691 87.6981294,107.644964 C87.6981294,103.783145 87.6175412,100.814373 87.4563647,98.7145091 C87.1340118,92.1252818 85.1193059,86.6463273 81.4122471,82.3017818 C77.7051882,77.9572364 72.3057765,75.7849636 65.2140118,75.7849636 C57.6387176,75.7849636 52.1990118,78.0457364 48.8948941,82.5431455 C45.5907765,87.0566455 43.6969529,93.2436 43.2134235,101.128145 C43.0522471,102.737236 42.9716588,105.231327 42.9716588,108.610418 C42.9716588,111.989509 43.0522471,114.491645 43.2134235,116.092691 C43.6969529,123.985282 45.5907765,130.172236 48.8948941,134.685736 C52.1990118,139.183145 57.6387176,141.435873 65.2140118,141.435873 C72.4669529,141.435873 77.8663647,139.142918 81.4122471,134.557009 M15.0478353,158.934736 C6.26371765,149.038827 1.46871765,135.079964 0.662835294,117.058145 L0.421070588,108.610418 L0.662835294,99.9213273 C1.30754118,82.5431455 6.10254118,68.7854182 15.0478353,58.6481455 C23.9931294,48.5189182 36.2747765,43.4422364 51.9169529,43.4422364 C66.5840118,43.4422364 78.4304824,48.1971 87.4563647,57.6826909 L87.4563647,6.03087273 C87.4563647,4.26891818 88.0204824,2.81269091 89.1487176,1.68632727 C90.2769529,0.568009091 91.7194824,-0.00321818182 93.5004824,-0.00321818182 L122.995776,-0.00321818182 C124.768718,-0.00321818182 126.219306,0.568009091 127.347541,1.68632727 C128.475776,2.81269091 129.039894,4.26891818 129.039894,6.03087273 L129.039894,165.330873 C129.039894,166.939964 128.475776,168.347918 127.347541,169.562782 C126.219306,170.761555 124.768718,171.364964 122.995776,171.364964 L95.6763647,171.364964 C94.0646,171.364964 92.6543059,170.761555 91.4454824,169.562782 C90.2366588,168.347918 89.6322471,166.939964 89.6322471,165.330873 L89.6322471,157.607236 C80.7675412,168.388145 68.1877176,173.7786 51.9169529,173.7786 C36.1216588,173.7786 23.8238941,168.830645 15.0478353,158.934736" id="Fill-23" fill="#000000" mask="url(#mask-7)"></path>
                </g>
            </g>
            <path d="M25.05,106.5 C23.849994,106.5 22.9250032,106.225003 22.275,105.675 C21.6249967,105.124997 21.1500015,104.200006 20.85,102.9 L0.3,6.3 L0,4.5 C0,3.699996 0.299997,3.000003 0.9,2.4 C1.500003,1.799997 2.199996,1.5 3,1.5 L6.15,1.5 C8.0500095,1.5 9.1499985,2.2499925 9.45,3.75 L27,89.25 L45.6,28.2 C46.400004,25.8999885 47.9499885,24.75 50.25,24.75 L53.55,24.75 C55.8500115,24.75 57.399996,25.8999885 58.2,28.2 L76.8,89.25 L94.35,3.75 C94.6500015,2.2499925 95.7499905,1.5 97.65,1.5 L100.8,1.5 C101.600004,1.5 102.299997,1.799997 102.9,2.4 C103.500003,3.000003 103.8,3.699996 103.8,4.5 L103.5,6.3 L82.95,102.9 C82.6499985,104.200006 82.1750032,105.124997 81.525,105.675 C80.8749967,106.225003 79.950006,106.5 78.75,106.5 L76.5,106.5 C74.1999885,106.5 72.650004,105.300012 71.85,102.9 L51.9,39.6 L31.95,102.9 C31.2499965,105.300012 29.700012,106.5 27.3,106.5 L25.05,106.5 Z M159.16867,108 C149.668622,108 142.018699,104.875031 136.21867,98.625 C130.418641,92.3749687 127.118674,84.0000525 126.31867,73.5 L126.16867,67.5 L126.31867,61.5 C127.118674,51.099948 130.393641,42.7500315 136.14367,36.45 C141.893698,30.1499685 149.568622,27 159.16867,27 C169.568722,27 177.69364,30.4499655 183.54367,37.35 C189.393699,44.2500345 192.31867,53.69994 192.31867,65.7 L192.31867,67.95 C192.31867,68.950005 191.993673,69.749997 191.34367,70.35 C190.693666,70.950003 189.868675,71.25 188.86867,71.25 L135.46867,71.25 L135.46867,72.75 C135.668671,77.4500235 136.74366,81.8249798 138.69367,85.875 C140.643679,89.9250202 143.368652,93.1749877 146.86867,95.625 C150.368687,98.0750122 154.468646,99.3 159.16867,99.3 C164.668697,99.3 169.143652,98.2250107 172.59367,96.075 C176.043687,93.9249892 178.518662,91.750011 180.01867,89.55 C180.918674,88.349994 181.593667,87.6000015 182.04367,87.3 C182.493672,86.9999985 183.318664,86.85 184.51867,86.85 L186.91867,86.85 C187.818674,86.85 188.568667,87.0999975 189.16867,87.6 C189.768673,88.1000025 190.06867,88.749996 190.06867,89.55 C190.06867,91.6500105 188.743683,94.1749852 186.09367,97.125 C183.443656,100.075015 179.768693,102.624989 175.06867,104.775 C170.368646,106.925011 165.068699,108 159.16867,108 Z M183.16867,62.85 L183.16867,62.25 C183.16867,54.5499615 180.993691,48.200025 176.64367,43.2 C172.293648,38.199975 166.468706,35.7 159.16867,35.7 C151.868633,35.7 146.093691,38.199975 141.84367,43.2 C137.593648,48.200025 135.46867,54.5499615 135.46867,62.25 L135.46867,62.85 L183.16867,62.85 Z M256.987339,108 C245.987284,108 237.587368,104.050039 231.787339,96.15 L231.787339,103.2 C231.787339,104.200005 231.487342,104.999997 230.887339,105.6 C230.287336,106.200003 229.487344,106.5 228.487339,106.5 L225.937339,106.5 C224.937334,106.5 224.137342,106.200003 223.537339,105.6 C222.937336,104.999997 222.637339,104.200005 222.637339,103.2 L222.637339,3.3 C222.637339,2.299995 222.937336,1.500003 223.537339,0.9 C224.137342,0.299997 224.937334,0 225.937339,0 L228.487339,0 C229.487344,0 230.287336,0.299997 230.887339,0.9 C231.487342,1.500003 231.787339,2.299995 231.787339,3.3 L231.787339,38.85 C237.687369,30.9499605 246.087285,27 256.987339,27 C267.787393,27 275.762313,30.5249647 280.912339,37.575 C286.062365,44.6250353 288.787338,53.1999495 289.087339,63.3 C289.18734,64.300005 289.237339,65.699991 289.237339,67.5 C289.237339,69.300009 289.18734,70.699995 289.087339,71.7 C288.787338,81.8000505 286.062365,90.3749647 280.912339,97.425 C275.762313,104.475035 267.787393,108 256.987339,108 Z M256.087339,99.3 C264.18738,99.3 270.11232,96.7250257 273.862339,91.575 C277.612358,86.4249743 279.637338,79.8000405 279.937339,71.7 C280.03734,70.699995 280.087339,69.300009 280.087339,67.5 C280.087339,58.1999535 278.287357,50.5750297 274.687339,44.625 C271.087321,38.6749703 264.887383,35.7 256.087339,35.7 C250.787313,35.7 246.337357,36.9499875 242.737339,39.45 C239.137321,41.9500125 236.437348,45.1249808 234.637339,48.975 C232.83733,52.8250192 231.88734,56.8999785 231.787339,61.2 L231.637339,67.05 L231.787339,72.9 C232.087341,80.0000355 234.237319,86.1749737 238.237339,91.425 C242.237359,96.6750262 248.1873,99.3 256.087339,99.3 Z M344.606009,108 C338.105976,108 332.631031,106.900011 328.181009,104.7 C323.730986,102.499989 320.38102,100.000014 318.131009,97.2 C315.880997,94.399986 314.756009,92.1500085 314.756009,90.45 C314.756009,89.5499955 315.106005,88.8250028 315.806009,88.275 C316.506012,87.7249972 317.256005,87.45 318.056009,87.45 L320.306009,87.45 C321.006012,87.45 321.581006,87.5749988 322.031009,87.825 C322.481011,88.0750013 323.006006,88.599996 323.606009,89.4 C325.80602,92.5000155 328.480993,94.9249912 331.631009,96.675 C334.781024,98.4250087 339.105981,99.3 344.606009,99.3 C350.80604,99.3 355.80599,98.1250117 359.606009,95.775 C363.406028,93.4249883 365.306009,90.050022 365.306009,85.65 C365.306009,82.9499865 364.531016,80.7500085 362.981009,79.05 C361.431001,77.3499915 358.931026,75.8750063 355.481009,74.625 C352.030991,73.3749937 346.906043,71.950008 340.106009,70.35 C331.205964,68.34999 325.131025,65.6000175 321.881009,62.1 C318.630992,58.5999825 317.006009,54.150027 317.006009,48.75 C317.006009,45.0499815 318.030998,41.5500165 320.081009,38.25 C322.131019,34.9499835 325.180988,32.2500105 329.231009,30.15 C333.281029,28.0499895 338.15598,27 343.856009,27 C349.856039,27 354.930988,28.0249898 359.081009,30.075 C363.231029,32.1250103 366.330998,34.4999865 368.381009,37.2 C370.431019,39.9000135 371.456009,42.0999915 371.456009,43.8 C371.456009,44.7000045 371.131012,45.4249972 370.481009,45.975 C369.831005,46.5250028 369.056013,46.8 368.156009,46.8 L365.906009,46.8 C364.506002,46.8 363.406013,46.1500065 362.606009,44.85 C360.605999,41.849985 358.331021,39.5750077 355.781009,38.025 C353.230996,36.4749923 349.256036,35.7 343.856009,35.7 C338.05598,35.7 333.656024,36.899988 330.656009,39.3 C327.655994,41.700012 326.156009,44.8499805 326.156009,48.75 C326.156009,51.150012 326.756003,53.149992 327.956009,54.75 C329.156015,56.350008 331.405992,57.8249933 334.706009,59.175 C338.006025,60.5250068 342.805977,61.899993 349.106009,63.3 C358.406055,65.4000105 364.95599,68.1999825 368.756009,71.7 C372.556028,75.2000175 374.456009,79.849971 374.456009,85.65 C374.456009,89.7500205 373.30602,93.499983 371.006009,96.9 C368.705997,100.300017 365.306031,102.99999 360.806009,105 C356.305986,107.00001 350.90604,108 344.606009,108 Z M405.674678,12.45 C404.674673,12.45 403.874681,12.150003 403.274678,11.55 C402.674675,10.949997 402.374678,10.150005 402.374678,9.15 L402.374678,3.45 C402.374678,2.449995 402.674675,1.62500325 403.274678,0.975 C403.874681,0.32499675 404.674673,0 405.674678,0 L411.374678,0 C412.374683,0 413.199675,0.32499675 413.849678,0.975 C414.499681,1.62500325 414.824678,2.449995 414.824678,3.45 L414.824678,9.15 C414.824678,10.150005 414.499681,10.949997 413.849678,11.55 C413.199675,12.150003 412.374683,12.45 411.374678,12.45 L405.674678,12.45 Z M407.324678,106.5 C406.324673,106.5 405.524681,106.200003 404.924678,105.6 C404.324675,104.999997 404.024678,104.200005 404.024678,103.2 L404.024678,31.8 C404.024678,30.799995 404.324675,30.000003 404.924678,29.4 C405.524681,28.799997 406.324673,28.5 407.324678,28.5 L409.874678,28.5 C410.874683,28.5 411.674675,28.799997 412.274678,29.4 C412.874681,30.000003 413.174678,30.799995 413.174678,31.8 L413.174678,103.2 C413.174678,104.200005 412.874681,104.999997 412.274678,105.6 C411.674675,106.200003 410.874683,106.5 409.874678,106.5 L407.324678,106.5 Z M474.093348,106.5 C466.693311,106.5 461.443363,104.275022 458.343348,99.825 C455.243332,95.3749777 453.693348,89.250039 453.693348,81.45 L453.693348,37.2 L441.993348,37.2 C440.993343,37.2 440.193351,36.900003 439.593348,36.3 C438.993345,35.699997 438.693348,34.900005 438.693348,33.9 L438.693348,31.8 C438.693348,30.799995 438.993345,30.000003 439.593348,29.4 C440.193351,28.799997 440.993343,28.5 441.993348,28.5 L453.693348,28.5 L453.693348,3.3 C453.693348,2.299995 453.993345,1.500003 454.593348,0.9 C455.193351,0.299997 455.993343,0 456.993348,0 L459.543348,0 C460.543353,0 461.343345,0.299997 461.943348,0.9 C462.543351,1.500003 462.843348,2.299995 462.843348,3.3 L462.843348,28.5 L481.443348,28.5 C482.443353,28.5 483.243345,28.799997 483.843348,29.4 C484.443351,30.000003 484.743348,30.799995 484.743348,31.8 L484.743348,33.9 C484.743348,34.900005 484.443351,35.699997 483.843348,36.3 C483.243345,36.900003 482.443353,37.2 481.443348,37.2 L462.843348,37.2 L462.843348,80.85 C462.843348,86.450028 463.768338,90.6749857 465.618348,93.525 C467.468357,96.3750143 470.543326,97.8 474.843348,97.8 L482.943348,97.8 C483.943353,97.8 484.743345,98.099997 485.343348,98.7 C485.943351,99.300003 486.243348,100.099995 486.243348,101.1 L486.243348,103.2 C486.243348,104.200005 485.943351,104.999997 485.343348,105.6 C484.743345,106.200003 483.943353,106.5 482.943348,106.5 L474.093348,106.5 Z M541.012017,108 C531.51197,108 523.862046,104.875031 518.062017,98.625 C512.261988,92.3749687 508.962021,84.0000525 508.162017,73.5 L508.012017,67.5 L508.162017,61.5 C508.962021,51.099948 512.236988,42.7500315 517.987017,36.45 C523.737046,30.1499685 531.411969,27 541.012017,27 C551.412069,27 559.536988,30.4499655 565.387017,37.35 C571.237046,44.2500345 574.162017,53.69994 574.162017,65.7 L574.162017,67.95 C574.162017,68.950005 573.83702,69.749997 573.187017,70.35 C572.537014,70.950003 571.712022,71.25 570.712017,71.25 L517.312017,71.25 L517.312017,72.75 C517.512018,77.4500235 518.587007,81.8249798 520.537017,85.875 C522.487027,89.9250202 525.212,93.1749877 528.712017,95.625 C532.212035,98.0750122 536.311994,99.3 541.012017,99.3 C546.512045,99.3 550.987,98.2250107 554.437017,96.075 C557.887034,93.9249892 560.36201,91.750011 561.862017,89.55 C562.762022,88.349994 563.437015,87.6000015 563.887017,87.3 C564.337019,86.9999985 565.162011,86.85 566.362017,86.85 L568.762017,86.85 C569.662022,86.85 570.412014,87.0999975 571.012017,87.6 C571.61202,88.1000025 571.912017,88.749996 571.912017,89.55 C571.912017,91.6500105 570.58703,94.1749852 567.937017,97.125 C565.287004,100.075015 561.612041,102.624989 556.912017,104.775 C552.211994,106.925011 546.912047,108 541.012017,108 Z M565.012017,62.85 L565.012017,62.25 C565.012017,54.5499615 562.837039,48.200025 558.487017,43.2 C554.136995,38.199975 548.312054,35.7 541.012017,35.7 C533.711981,35.7 527.937038,38.199975 523.687017,43.2 C519.436996,48.200025 517.312017,54.5499615 517.312017,62.25 L517.312017,62.85 L565.012017,62.85 Z M658.649356,106.5 C657.649351,106.5 656.849359,106.200003 656.249356,105.6 C655.649353,104.999997 655.349356,104.200005 655.349356,103.2 L655.349356,4.95 C655.349356,3.949995 655.649353,3.12500325 656.249356,2.475 C656.849359,1.82499675 657.649351,1.5 658.649356,1.5 L697.799356,1.5 C707.699406,1.5 715.199331,4.0499745 720.299356,9.15 C725.399382,14.2500255 727.949356,20.6499615 727.949356,28.35 C727.949356,34.2500295 726.649369,39.099981 724.049356,42.9 C721.449343,46.700019 718.349374,49.4499915 714.749356,51.15 C719.049378,53.350011 722.674341,56.6999775 725.624356,61.2 C728.574371,65.7000225 730.049356,70.8999705 730.049356,76.8 C730.049356,82.000026 728.824368,86.8749773 726.374356,91.425 C723.924344,95.9750227 720.34938,99.6249862 715.649356,102.375 C710.949333,105.125014 705.349389,106.5 698.849356,106.5 L658.649356,106.5 Z M695.849356,47.1 C703.249393,47.1 708.874337,45.4750162 712.724356,42.225 C716.574375,38.9749838 718.499356,34.35003 718.499356,28.35 C718.499356,22.4499705 716.574375,18.000015 712.724356,15 C708.874337,11.999985 703.249393,10.5 695.849356,10.5 L664.799356,10.5 L664.799356,47.1 L695.849356,47.1 Z M697.349356,97.5 C704.649393,97.5 710.349336,95.5750192 714.449356,91.725 C718.549377,87.8749808 720.599356,82.9000305 720.599356,76.8 C720.599356,70.599969 718.549377,65.600019 714.449356,61.8 C710.349336,57.999981 704.649393,56.1 697.349356,56.1 L664.799356,56.1 L664.799356,97.5 L697.349356,97.5 Z M774.918026,135 C774.118022,135 773.418029,134.700003 772.818026,134.1 C772.218023,133.499997 771.918026,132.800004 771.918026,132 C771.918026,131.499998 772.218023,130.500008 772.818026,129 L784.368026,102 L755.718026,34.5 C755.118023,32.9999925 754.818026,32.0000025 754.818026,31.5 C754.818026,30.699996 755.118023,30.000003 755.718026,29.4 C756.318029,28.799997 757.018022,28.5 757.818026,28.5 L760.968026,28.5 C762.568034,28.5 763.718022,29.2499925 764.418026,30.75 L789.618026,90.15 L815.418026,30.75 C816.21803,29.2499925 817.368018,28.5 818.868026,28.5 L821.868026,28.5 C822.66803,28.5 823.368023,28.799997 823.968026,29.4 C824.568029,30.000003 824.868026,30.699996 824.868026,31.5 C824.868026,32.0000025 824.568029,32.9999925 823.968026,34.5 L781.368026,132.75 C780.668022,134.250008 779.518034,135 777.918026,135 L774.918026,135 Z M854.136695,54 C853.13669,54 852.336698,53.700003 851.736695,53.1 C851.136692,52.499997 850.836695,51.700005 850.836695,50.7 L850.836695,43.5 C850.836695,42.499995 851.136692,41.6750032 851.736695,41.025 C852.336698,40.3749968 853.13669,40.05 854.136695,40.05 L861.336695,40.05 C862.3367,40.05 863.161692,40.3749968 863.811695,41.025 C864.461698,41.6750032 864.786695,42.499995 864.786695,43.5 L864.786695,50.7 C864.786695,51.700005 864.461698,52.499997 863.811695,53.1 C863.161692,53.700003 862.3367,54 861.336695,54 L854.136695,54 Z M854.136695,106.5 C853.13669,106.5 852.336698,106.200003 851.736695,105.6 C851.136692,104.999997 850.836695,104.200005 850.836695,103.2 L850.836695,96 C850.836695,94.999995 851.136692,94.1750032 851.736695,93.525 C852.336698,92.8749968 853.13669,92.55 854.136695,92.55 L861.336695,92.55 C862.3367,92.55 863.161692,92.8749968 863.811695,93.525 C864.461698,94.1750032 864.786695,94.999995 864.786695,96 L864.786695,103.2 C864.786695,104.200005 864.461698,104.999997 863.811695,105.6 C863.161692,106.200003 862.3367,106.5 861.336695,106.5 L854.136695,106.5 Z" id="Website-By:-Copy" fill="#000000"></path>
        </g>
    </g>
</svg>